<svg height="600pt" viewBox="-40 0 600 600" width="600pt" xmlns="http://www.w3.org/2000/svg"><path d="m519.914062 90c.015626-2.636719-1.003906-5.179688-2.84375-7.070312l-80-80c-1.882812-1.851563-4.429687-2.8710942-7.070312-2.8437505v-.0859375h-380c-27.601562.0351562-49.9648438 22.398438-50 50v500c.0351562 27.601562 22.398438 49.964844 50 50h420c27.601562-.035156 49.964844-22.398438 50-50zm-79.914062-55.859375 45.859375 45.859375h-45.859375zm-390-14.140625h370v70c0 5.523438 4.476562 10 10 10h70v200h-480v-250c0-16.566406 13.433594-30 30-30zm450 500h-480v-200h480zm-30 60h-420c-16.566406 0-30-13.433594-30-30v-10h480v10c0 16.566406-13.433594 30-30 30zm0 0"/><path d="m250.296875 502.421875c1.117187 4.449219 5.117187 7.570313 9.703125 7.570313s8.585938-3.121094 9.703125-7.570313l40-160c.957031-3.5-.054687-7.246094-2.640625-9.785156-2.59375-2.539063-6.355469-3.480469-9.835938-2.449219-3.480468 1.023438-6.128906 3.855469-6.929687 7.390625l-30.296875 121.191406-30.296875-121.191406c-.800781-3.535156-3.449219-6.367187-6.929687-7.390625-3.480469-1.03125-7.242188-.089844-9.835938 2.449219-2.585938 2.539062-3.597656 6.285156-2.640625 9.785156zm0 0"/><path d="m100 510c5.523438 0 10-4.476562 10-10v-70h60v70c0 5.523438 4.476562 10 10 10s10-4.476562 10-10v-140c0-16.566406-13.433594-30-30-30h-40c-16.566406 0-30 13.433594-30 30v140c0 5.523438 4.476562 10 10 10zm10-150c0-5.523438 4.476562-10 10-10h40c5.523438 0 10 4.476562 10 10v50h-60zm0 0"/><path d="m340 490c-5.523438 0-10 4.476562-10 10s4.476562 10 10 10h80c5.523438 0 10-4.476562 10-10s-4.476562-10-10-10h-30v-140h30c5.523438 0 10-4.476562 10-10s-4.476562-10-10-10h-80c-5.523438 0-10 4.476562-10 10s4.476562 10 10 10h30v140zm0 0"/></svg>