<svg height="598pt" viewBox="-40 0 598 598.51885" width="598pt" xmlns="http://www.w3.org/2000/svg"><path d="m50.136719 508.742188h39.902343c27.53125-.035157 49.839844-22.347657 49.875-49.878907v-79.800781c0-28.089844-32.179687-49.878906-59.851562-49.878906h-29.925781c-5.507813 0-9.976563 4.46875-9.976563 9.976562v159.605469c0 5.507813 4.46875 9.976563 9.976563 9.976563zm9.972656-159.605469h19.953125c17.425781 0 39.902344 14.515625 39.902344 29.925781v79.800781c0 16.527344-13.402344 29.925781-29.925782 29.925781h-29.929687zm0 0"/><path d="m179.816406 508.742188h39.898438c16.527344 0 29.925781-13.402344 29.925781-29.925782v-119.707031c0-16.523437-13.398437-29.925781-29.925781-29.925781h-39.898438c-16.527344 0-29.925781 13.402344-29.925781 29.925781v119.707031c0 16.523438 13.398437 29.925782 29.925781 29.925782zm-9.976562-149.632813c0-5.507813 4.464844-9.972656 9.976562-9.972656h39.898438c5.511718 0 9.976562 4.464843 9.976562 9.972656v119.707031c0 5.507813-4.464844 9.972656-9.976562 9.972656h-39.898438c-5.511718 0-9.976562-4.464843-9.976562-9.972656zm0 0"/><path d="m319.46875 508.742188h39.902344c5.507812 0 9.976562-4.46875 9.976562-9.976563s-4.46875-9.976563-9.976562-9.976563h-39.902344c-16.527344 0-29.925781-13.398437-29.925781-29.925781v-79.800781c0-16.527344 13.398437-29.925781 29.925781-29.925781h39.902344c5.507812 0 9.976562-4.46875 9.976562-9.976563 0-5.507812-4.46875-9.976562-9.976562-9.976562h-39.902344c-27.535156.035156-49.839844 22.34375-49.875 49.878906v79.800781c.035156 27.53125 22.339844 49.84375 49.875 49.878907zm0 0"/><path d="m518.886719 89.777344c.019531-2.632813-.996094-5.167969-2.832031-7.050782l-79.804688-79.804687c-1.875-1.851563-4.417969-2.875-7.050781-2.8359375v-.0859375h-379.0625c-27.535157.0351562-49.84375 22.34375-49.878907 49.875v498.765625c.035157 27.53125 22.34375 49.84375 49.878907 49.878906h418.960937c27.535156-.035156 49.84375-22.347656 49.878906-49.878906zm-79.714844-55.722656 45.746094 45.746093h-45.746094zm-389.035156-14.105469h369.085937v69.828125c0 5.507812 4.464844 9.976562 9.976563 9.976562h69.824219v199.503906h-478.8125v-249.382812c0-16.523438 13.398437-29.925781 29.925781-29.925781zm448.886719 498.765625h-478.8125v-199.503906h478.8125zm-29.925782 59.851562h-418.960937c-16.527344 0-29.925781-13.398437-29.925781-29.925781v-9.972656h478.8125v9.972656c0 16.527344-13.398438 29.925781-29.925782 29.925781zm0 0"/><path d="m384.839844 507.742188c4.929687 2.464843 10.925781.464843 13.386718-4.472657l30.972657-62.003906 30.921875 61.957031c2.460937 4.933594 8.457031 6.929688 13.386718 4.472656 4.933594-2.464843 6.929688-8.457031 4.472657-13.390624l-37.628907-75.339844 37.722657-75.347656c2.464843-4.929688.464843-10.925782-4.464844-13.382813-4.933594-2.464844-10.925781-.464844-13.390625 4.464844l-31.019531 61.957031-30.925781-61.957031c-2.460938-4.929688-8.457032-6.929688-13.386719-4.464844-4.933594 2.457031-6.929688 8.453125-4.46875 13.382813l37.625 75.347656-37.675781 75.339844c-1.195313 2.371093-1.402344 5.128906-.5625 7.652343.839843 2.523438 2.652343 4.601563 5.035156 5.785157zm0 0"/></svg>