<svg height="599pt" viewBox="-39 1 599 599.99977" width="599pt" xmlns="http://www.w3.org/2000/svg"><path d="m100.5 510h40c27.601562-.035156 49.964844-22.398438 50-50v-80c0-28.148438-32.261719-50-60-50h-30c-5.523438 0-10 4.476562-10 10v160c0 5.523438 4.476562 10 10 10zm10-160h20c17.460938 0 40 14.550781 40 30v80c0 16.566406-13.433594 30-30 30h-30zm0 0"/><path d="m520.410156 90c.03125-2.640625-.988281-5.1875-2.839844-7.070312l-80-80c-1.886718-1.851563-4.429687-2.8710942-7.070312-2.8437505v-.0859375h-380c-27.601562.0351562-49.964844 22.398438-50 50v500c.035156 27.601562 22.398438 49.964844 50 50h420c27.601562-.035156 49.964844-22.398438 50-50zm-79.910156-55.859375 45.859375 45.859375h-45.859375zm-390-14.140625h370v70c0 5.523438 4.476562 10 10 10h70v200h-480v-250c0-16.566406 13.433594-30 30-30zm450 500h-480v-200h480zm-30 60h-420c-16.566406 0-30-13.433594-30-30v-10h480v10c0 16.566406-13.433594 30-30 30zm0 0"/><path d="m360.5 510h40c16.566406 0 30-13.433594 30-30v-60c0-5.523438-4.476562-10-10-10h-40c-5.523438 0-10 4.476562-10 10s4.476562 10 10 10h30v50c0 5.523438-4.476562 10-10 10h-40c-5.523438 0-10-4.476562-10-10v-120c0-5.523438 4.476562-10 10-10h40c5.523438 0 10 4.476562 10 10v20c0 5.523438 4.476562 10 10 10s10-4.476562 10-10v-20c0-16.566406-13.433594-30-30-30h-40c-16.566406 0-30 13.433594-30 30v120c0 16.566406 13.433594 30 30 30zm0 0"/><path d="m218.210938 509.742188c4.511718 1.019531 9.140624-1.152344 11.238281-5.273438l31.050781-62.109375 31 62.109375c1.699219 3.40625 5.191406 5.550781 9 5.53125.769531-.003906 1.539062-.089844 2.289062-.257812 4.523438-1.066407 7.714844-5.097657 7.710938-9.742188v-160c0-5.523438-4.476562-10-10-10s-10 4.476562-10 10v117.640625l-21-42.109375c-1.882812-3.152344-5.28125-5.085938-8.953125-5.085938-3.664063 0-7.070313 1.933594-8.949219 5.085938l-21.097656 42.109375v-117.640625c0-5.523438-4.476562-10-10-10s-10 4.476562-10 10v160c-.003906 4.644531 3.1875 8.675781 7.710938 9.742188zm0 0"/></svg>