<?xml version="1.0" encoding="iso-8859-1"?>
<!-- Generator: Adobe Illustrator 19.0.0, SVG Export Plug-In . SVG Version: 6.00 Build 0)  -->
<svg version="1.1" id="Capa_1" xmlns="http://www.w3.org/2000/svg" xmlns:xlink="http://www.w3.org/1999/xlink" x="0px" y="0px"
	 viewBox="0 0 480.008 480.008" style="enable-background:new 0 0 480.008 480.008;" xml:space="preserve">
<g>
	<g>
		<g>
			<path d="M415.9,87.496c-0.039-0.678-0.168-1.348-0.384-1.992c-0.096-0.272-0.168-0.528-0.28-0.8
				c-0.342-0.768-0.807-1.476-1.376-2.096c-0.056-0.064-0.072-0.144-0.136-0.208l-78.136-80c-1.508-1.539-3.573-2.404-5.728-2.4
				H72.004c-4.418,0-8,3.582-8,8v464.008c0,4.418,3.582,8,8,8h336c4.418,0,8-3.582,8-8v-384
				C416.004,87.832,415.916,87.672,415.9,87.496z M336.004,27.32l52.688,52.688h-52.688V27.32z M400.004,464.008h-320v-448h240v64
				c0,8.837,7.163,16,16,16h64V464.008z"/>
			<rect x="112.004" y="112.008" width="144" height="16"/>
			<rect x="112.004" y="144.008" width="176" height="16"/>
			<rect x="112.004" y="176.008" width="208" height="16"/>
			<rect x="112.004" y="208.008" width="240" height="16"/>
		</g>
	</g>
</g>
<g>
</g>
<g>
</g>
<g>
</g>
<g>
</g>
<g>
</g>
<g>
</g>
<g>
</g>
<g>
</g>
<g>
</g>
<g>
</g>
<g>
</g>
<g>
</g>
<g>
</g>
<g>
</g>
<g>
</g>
</svg>
