<svg height="598pt" viewBox="-40 0 598 598.51885" width="598pt" xmlns="http://www.w3.org/2000/svg"><path d="m518.886719 89.777344c.019531-2.632813-.996094-5.167969-2.832031-7.050782l-79.804688-79.804687c-1.875-1.851563-4.417969-2.875-7.050781-2.8359375v-.0859375h-379.0625c-27.535157.0351562-49.84375 22.34375-49.878907 49.875v498.765625c.035157 27.53125 22.34375 49.84375 49.878907 49.878906h418.960937c27.535156-.035156 49.84375-22.347656 49.878906-49.878906zm-79.714844-55.722656 45.746094 45.746093h-45.746094zm-389.035156-14.105469h369.085937v69.828125c0 5.507812 4.464844 9.976562 9.976563 9.976562h69.824219v199.503906h-478.8125v-249.382812c0-16.523438 13.398437-29.925781 29.925781-29.925781zm448.886719 498.765625h-478.8125v-199.503906h478.8125zm-29.925782 59.851562h-418.960937c-16.527344 0-29.925781-13.398437-29.925781-29.925781v-9.972656h478.8125v9.972656c0 16.527344-13.398438 29.925781-29.925782 29.925781zm0 0"/><path d="m159.863281 349.136719h29.925781v149.628906c0 5.507813 4.46875 9.976563 9.976563 9.976563s9.976563-4.46875 9.976563-9.976563v-149.628906h29.925781c5.507812 0 9.972656-4.46875 9.972656-9.976563 0-5.507812-4.464844-9.976562-9.972656-9.976562h-79.804688c-5.507812 0-9.972656 4.46875-9.972656 9.976562 0 5.507813 4.464844 9.976563 9.972656 9.976563zm0 0"/><path d="m50.136719 508.742188c5.507812 0 9.972656-4.46875 9.972656-9.976563v-69.828125h59.855469v69.828125c0 5.507813 4.464844 9.976563 9.972656 9.976563 5.511719 0 9.976562-4.46875 9.976562-9.976563v-159.605469c0-5.507812-4.464843-9.976562-9.976562-9.976562-5.507812 0-9.972656 4.46875-9.972656 9.976562v69.828125h-59.855469v-69.828125c0-5.507812-4.464844-9.976562-9.972656-9.976562-5.507813 0-9.976563 4.46875-9.976563 9.976562v159.605469c0 5.507813 4.46875 9.976563 9.976563 9.976563zm0 0"/><path d="m279.566406 508.742188c5.511719 0 9.976563-4.46875 9.976563-9.976563v-117.351563l20.949219 42.007813c1.875 3.144531 5.265624 5.070313 8.929687 5.070313 3.65625 0 7.050781-1.925782 8.925781-5.070313l21.046875-42.007813v117.351563c0 5.507813 4.46875 9.976563 9.976563 9.976563 5.507812 0 9.976562-4.46875 9.976562-9.976563v-159.605469c.050782-4.671875-3.144531-8.753906-7.691406-9.824218-4.546875-1.066407-9.226562 1.160156-11.261719 5.363281l-30.925781 61.957031-30.921875-61.957031c-2.039063-4.203125-6.71875-6.429688-11.261719-5.363281-4.550781 1.070312-7.746094 5.152343-7.691406 9.824218v159.605469c0 5.507813 4.464844 9.976563 9.972656 9.976563zm0 0"/><path d="m389.296875 508.742188h79.800781c5.511719 0 9.976563-4.46875 9.976563-9.976563s-4.464844-9.976563-9.976563-9.976563h-69.824218v-149.628906c0-5.507812-4.46875-9.976562-9.976563-9.976562s-9.976563 4.46875-9.976563 9.976562v159.605469c0 5.507813 4.46875 9.976563 9.976563 9.976563zm0 0"/></svg>