<svg height="598pt" viewBox="-40 0 598 598.381" width="598pt" xmlns="http://www.w3.org/2000/svg"><path d="m518.699219 89.757812c.03125-2.636718-.988281-5.171874-2.832031-7.050781l-79.785157-79.785156c-1.878906-1.847656-4.417969-2.859375-7.050781-2.8242188v-.0976562h-378.976562c-27.527344.0351562-49.832032 22.335938-49.863282 49.863281v498.652344c.03125 27.523437 22.335938 49.832031 49.863282 49.867187h418.867187c27.527344-.035156 49.832031-22.34375 49.867187-49.867187zm-79.695313-55.710937 45.734375 45.738281h-45.734375zm-388.949218-14.101563h369.003906v69.8125c0 5.507813 4.464844 9.972657 9.972656 9.972657h69.808594v199.460937h-478.703125v-249.328125c0-16.519531 13.394531-29.917969 29.917969-29.917969zm448.785156 498.652344h-478.703125v-199.460937h478.703125zm-29.917969 59.835938h-418.867187c-16.523438 0-29.917969-13.394532-29.917969-29.917969v-9.972656h478.703125v9.972656c0 16.523437-13.394532 29.917969-29.917969 29.917969zm0 0"/><path d="m159.757812 508.625c5.507813 0 9.972657-4.464844 9.972657-9.972656v-69.8125h49.867187c16.523438 0 29.917969-13.394532 29.917969-29.917969v-39.894531c0-16.519532-13.394531-29.917969-29.917969-29.917969h-59.839844c-5.507812 0-9.972656 4.464844-9.972656 9.972656v159.570313c0 5.507812 4.464844 9.972656 9.972656 9.972656zm9.972657-159.570312h49.867187c5.507813 0 9.972656 4.464843 9.972656 9.972656v39.894531c0 5.507813-4.464843 9.972656-9.972656 9.972656h-49.867187zm0 0"/><path d="m409.085938 508.625h39.890624c16.523438 0 29.917969-13.398438 29.917969-29.921875v-59.835937c0-5.507813-4.464843-9.972657-9.972656-9.972657h-39.890625c-5.507812 0-9.972656 4.464844-9.972656 9.972657 0 5.507812 4.464844 9.972656 9.972656 9.972656h29.917969v49.863281c0 5.507813-4.464844 9.976563-9.972657 9.976563h-39.890624c-5.507813 0-9.976563-4.46875-9.976563-9.976563v-119.675781c0-5.507813 4.46875-9.972656 9.976563-9.972656h39.890624c5.507813 0 9.972657 4.464843 9.972657 9.972656v19.949218c0 5.503907 4.464843 9.972657 9.972656 9.972657s9.972656-4.46875 9.972656-9.972657v-19.949218c0-16.519532-13.394531-29.917969-29.917969-29.917969h-39.890624c-16.523438 0-29.921876 13.398437-29.921876 29.917969v119.675781c0 16.523437 13.398438 29.921875 29.921876 29.921875zm0 0"/><path d="m89.949219 508.625c27.527343-.035156 49.828125-22.34375 49.863281-49.867188v-119.675781c0-5.507812-4.464844-9.972656-9.972656-9.972656-5.507813 0-9.972656 4.464844-9.972656 9.972656v119.675781c0 16.523438-13.398438 29.921876-29.917969 29.921876-16.523438 0-29.921875-13.398438-29.921875-29.921876 0-5.507812-4.464844-9.972656-9.972656-9.972656-5.507813 0-9.972657 4.464844-9.972657 9.972656.035157 27.523438 22.335938 49.832032 49.867188 49.867188zm0 0"/><path d="m279.433594 508.625h79.785156c5.507812 0 9.972656-4.464844 9.972656-9.972656 0-5.507813-4.464844-9.972656-9.972656-9.972656h-69.8125v-59.839844h69.8125c5.507812 0 9.972656-4.464844 9.972656-9.972656 0-5.507813-4.464844-9.972657-9.972656-9.972657h-69.8125v-59.839843h69.8125c5.507812 0 9.972656-4.464844 9.972656-9.972657 0-5.507812-4.464844-9.972656-9.972656-9.972656h-79.785156c-5.507813 0-9.972656 4.464844-9.972656 9.972656v159.570313c0 5.507812 4.464843 9.972656 9.972656 9.972656zm0 0"/></svg>