<svg height="600pt" viewBox="-40 0 600 600" width="600pt" xmlns="http://www.w3.org/2000/svg"><path d="m519.914062 90c.015626-2.636719-1.003906-5.179688-2.84375-7.070312l-80-80c-1.882812-1.851563-4.429687-2.8710942-7.070312-2.8437505v-.0859375h-380c-27.601562.0351562-49.9648438 22.398438-50 50v500c.0351562 27.601562 22.398438 49.964844 50 50h420c27.601562-.035156 49.964844-22.398438 50-50zm-79.914062-55.859375 45.859375 45.859375h-45.859375zm-390-14.140625h370v70c0 5.523438 4.476562 10 10 10h70v200h-480v-250c0-16.566406 13.433594-30 30-30zm450 500h-480v-200h480zm-30 60h-420c-16.566406 0-30-13.433594-30-30v-10h480v10c0 16.566406-13.433594 30-30 30zm0 0"/><path d="m100 510c5.523438 0 10-4.476562 10-10v-70h50c16.566406 0 30-13.433594 30-30v-40c0-16.566406-13.433594-30-30-30h-60c-5.523438 0-10 4.476562-10 10v160c0 5.523438 4.476562 10 10 10zm10-160h50c5.523438 0 10 4.476562 10 10v40c0 5.523438-4.476562 10-10 10h-50zm0 0"/><path d="m360 510h40c16.566406 0 30-13.433594 30-30v-60c0-5.523438-4.476562-10-10-10h-40c-5.523438 0-10 4.476562-10 10s4.476562 10 10 10h30v50c0 5.523438-4.476562 10-10 10h-40c-5.523438 0-10-4.476562-10-10v-120c0-5.523438 4.476562-10 10-10h40c5.523438 0 10 4.476562 10 10v20c0 5.523438 4.476562 10 10 10s10-4.476562 10-10v-20c0-16.566406-13.433594-30-30-30h-40c-16.566406 0-30 13.433594-30 30v120c0 16.566406 13.433594 30 30 30zm0 0"/><path d="m220 510c5.523438 0 10-4.476562 10-10v-117.640625l61 122.109375c.46875.917969 1.074219 1.757812 1.796875 2.488281.140625.144531.3125.234375.464844.371094.707031.644531 1.507812 1.183594 2.367187 1.601563.289063.140624.574219.257812.878906.382812 1.113282.429688 2.296876.664062 3.492188.6875h.085938c1.433593-.03125 2.839843-.371094 4.125-1 .089843 0 .1875 0 .28125-.058594.398437-.273437.785156-.578125 1.148437-.898437.605469-.378907 1.160156-.816407 1.667969-1.316407.417968-.484374.777344-1.019531 1.070312-1.585937.367188-.511719.679688-1.0625.933594-1.640625.21875-.6875.359375-1.398438.429688-2.117188.121093-.453124.203124-.917968.257812-1.382812v-160c0-5.523438-4.476562-10-10-10s-10 4.476562-10 10v117.640625l-61-122.109375c-2.042969-4.21875-6.734375-6.449219-11.289062-5.378906-4.5625 1.074218-7.765626 5.164062-7.710938 9.847656v160c0 5.523438 4.476562 10 10 10zm0 0"/></svg>