<svg height="600pt" viewBox="-40 0 600 600" width="600pt" xmlns="http://www.w3.org/2000/svg"><path d="m519.914062 90c.027344-2.640625-.992187-5.1875-2.84375-7.070312l-80-80c-1.882812-1.84375-4.429687-2.867188-7.070312-2.8320318v-.0976562h-380c-27.601562.0351562-49.9648438 22.398438-50 50v500c.0351562 27.601562 22.398438 49.964844 50 50h420c27.601562-.035156 49.964844-22.398438 50-50zm-79.914062-55.859375 45.859375 45.859375h-45.859375zm-390-14.140625h370v70c0 5.523438 4.476562 10 10 10h70v200h-480v-250c0-16.566406 13.433594-30 30-30zm450 500h-480v-200h480zm-30 60h-420c-16.566406 0-30-13.433594-30-30v-10h480v10c0 16.566406-13.433594 30-30 30zm0 0"/><path d="m220 510c5.523438 0 10-4.476562 10-10v-70h60v70c0 5.523438 4.476562 10 10 10s10-4.476562 10-10v-140c0-16.566406-13.433594-30-30-30h-40c-16.566406 0-30 13.433594-30 30v140c0 5.523438 4.476562 10 10 10zm10-150c0-5.523438 4.476562-10 10-10h40c5.523438 0 10 4.476562 10 10v50h-60zm0 0"/><path d="m100 510c5.523438 0 10-4.476562 10-10v-70h30c16.566406 0 30 13.433594 30 30v40c0 5.523438 4.476562 10 10 10s10-4.476562 10-10v-40c-.042969-15.800781-7.578125-30.640625-20.308594-40 17.371094-12.78125 24.550782-35.289062 17.792969-55.765625-6.757813-20.484375-25.917969-34.296875-47.484375-34.234375h-40c-5.523438 0-10 4.476562-10 10v160c0 5.523438 4.476562 10 10 10zm10-160h30c16.566406 0 30 13.433594 30 30s-13.433594 30-30 30h-30zm0 0"/><path d="m340 510c5.523438 0 10-4.476562 10-10v-70h30c16.566406 0 30 13.433594 30 30v40c0 5.523438 4.476562 10 10 10s10-4.476562 10-10v-40c-.042969-15.800781-7.578125-30.640625-20.308594-40 17.371094-12.78125 24.550782-35.289062 17.792969-55.765625-6.757813-20.484375-25.917969-34.296875-47.484375-34.234375h-40c-5.523438 0-10 4.476562-10 10v160c0 5.523438 4.476562 10 10 10zm10-160h30c16.566406 0 30 13.433594 30 30s-13.433594 30-30 30h-30zm0 0"/></svg>