<svg height="598pt" viewBox="-40 0 598 598.381" width="598pt" xmlns="http://www.w3.org/2000/svg"><path d="m518.699219 89.757812c.019531-2.636718-.996094-5.167968-2.832031-7.050781l-79.785157-79.785156c-1.878906-1.847656-4.417969-2.8671875-7.050781-2.8359375v-.0859375h-378.976562c-27.527344.0351562-49.832032 22.335938-49.863282 49.863281v498.652344c.03125 27.523437 22.335938 49.832031 49.863282 49.867187h418.867187c27.527344-.035156 49.832031-22.34375 49.867187-49.867187zm-79.695313-55.710937 45.734375 45.738281h-45.734375zm-388.949218-14.101563h369.003906v69.8125c0 5.507813 4.464844 9.972657 9.972656 9.972657h69.808594v199.460937h-478.703125v-249.328125c0-16.519531 13.394531-29.917969 29.917969-29.917969zm448.785156 498.652344h-478.703125v-199.460937h478.703125zm-29.917969 59.835938h-418.867187c-16.523438 0-29.917969-13.394532-29.917969-29.917969v-9.972656h478.703125v9.972656c0 16.523437-13.394532 29.917969-29.917969 29.917969zm0 0"/><path d="m359.21875 508.625h39.890625c16.523437 0 29.921875-13.398438 29.921875-29.921875v-59.835937c0-5.507813-4.464844-9.972657-9.972656-9.972657h-39.894532c-5.507812 0-9.972656 4.464844-9.972656 9.972657 0 5.507812 4.464844 9.972656 9.972656 9.972656h29.921876v49.863281c0 5.507813-4.46875 9.976563-9.976563 9.976563h-39.890625c-5.507812 0-9.972656-4.46875-9.972656-9.976563v-119.675781c0-5.507813 4.464844-9.972656 9.972656-9.972656h39.890625c5.507813 0 9.976563 4.464843 9.976563 9.972656v19.949218c0 5.503907 4.464843 9.972657 9.972656 9.972657 5.507812 0 9.972656-4.46875 9.972656-9.972657v-19.949218c0-16.519532-13.398438-29.917969-29.921875-29.917969h-39.890625c-16.523438 0-29.917969 13.398437-29.917969 29.917969v119.675781c0 16.523437 13.394531 29.921875 29.917969 29.921875zm0 0"/><path d="m159.757812 488.679688h-59.835937c-5.507813 0-9.972656 4.464843-9.972656 9.972656 0 5.507812 4.464843 9.972656 9.972656 9.972656h59.835937c16.523438 0 29.921876-13.398438 29.921876-29.921875v-39.890625c0-16.523438-13.398438-29.917969-29.921876-29.917969h-39.890624c-5.507813 0-9.972657-4.464843-9.972657-9.972656v-39.894531c0-5.507813 4.464844-9.972656 9.972657-9.972656h59.835937c5.507813 0 9.976563-4.464844 9.976563-9.972657 0-5.507812-4.46875-9.972656-9.976563-9.972656h-59.835937c-16.523438 0-29.917969 13.398437-29.917969 29.917969v39.894531c0 16.523437 13.394531 29.917969 29.917969 29.917969h39.890624c5.507813 0 9.972657 4.464844 9.972657 9.972656v39.890625c0 5.507813-4.464844 9.976563-9.972657 9.976563zm0 0"/><path d="m249.8125 501.0625c1.117188 4.441406 5.105469 7.550781 9.675781 7.550781 4.574219 0 8.5625-3.109375 9.675781-7.550781l39.894532-159.570312c.953125-3.484376-.054688-7.222657-2.636719-9.753907-2.585937-2.535156-6.335937-3.472656-9.808594-2.449219-3.46875 1.027344-6.109375 3.847657-6.910156 7.378907l-30.214844 120.863281-30.214843-120.863281c-.800782-3.53125-3.4375-6.351563-6.910157-7.378907-3.472656-1.023437-7.222656-.085937-9.808593 2.449219-2.582032 2.53125-3.589844 6.269531-2.632813 9.753907zm0 0"/></svg>