<svg height="598pt" viewBox="-40 0 598 598.381" width="598pt" xmlns="http://www.w3.org/2000/svg"><path d="m518.699219 89.757812c.03125-2.636718-.988281-5.171874-2.832031-7.050781l-79.785157-79.785156c-1.878906-1.847656-4.417969-2.8671875-7.050781-2.8359375v-.0859375h-378.976562c-27.527344.0351562-49.832032 22.335938-49.863282 49.863281v498.652344c.03125 27.523437 22.335938 49.832031 49.863282 49.867187h418.867187c27.527344-.035156 49.832031-22.34375 49.867187-49.867187zm-79.695313-55.710937 45.734375 45.738281h-45.734375zm-388.949218-14.101563h369.003906v69.8125c0 5.507813 4.464844 9.972657 9.972656 9.972657h69.808594v199.460937h-478.703125v-249.328125c0-16.519531 13.394531-29.917969 29.917969-29.917969zm448.785156 498.652344h-478.703125v-199.460937h478.703125zm-29.917969 59.835938h-418.867187c-16.523438 0-29.917969-13.394532-29.917969-29.917969v-9.972656h478.703125v9.972656c0 16.523437-13.394532 29.917969-29.917969 29.917969zm0 0"/><path d="m217.3125 508.367188c4.5 1.015624 9.117188-1.152344 11.210938-5.261719l30.964843-61.941407 30.917969 61.941407c1.695312 3.398437 5.175781 5.539062 8.976562 5.519531.769532-.007812 1.53125-.09375 2.28125-.257812 4.511719-1.0625 7.695313-5.085938 7.691407-9.714844v-159.570313c0-5.507812-4.46875-9.972656-9.972657-9.972656-5.507812 0-9.976562 4.464844-9.976562 9.972656v117.320313l-20.941406-41.996094c-1.875-3.140625-5.265625-5.070312-8.925782-5.070312-3.660156 0-7.050781 1.929687-8.925781 5.070312l-21.042969 41.996094v-117.320313c0-5.507812-4.464843-9.972656-9.972656-9.972656-5.507812 0-9.972656 4.464844-9.972656 9.972656v159.570313c-.007812 4.628906 3.179688 8.652344 7.6875 9.714844zm0 0"/><path d="m339.273438 508.625c5.507812 0 9.972656-4.464844 9.972656-9.972656v-69.8125h69.8125c5.507812 0 9.972656-4.464844 9.972656-9.972656 0-5.507813-4.464844-9.972657-9.972656-9.972657h-69.8125v-59.839843h69.8125c5.507812 0 9.972656-4.464844 9.972656-9.972657 0-5.507812-4.464844-9.972656-9.972656-9.972656h-79.785156c-5.507813 0-9.972657 4.464844-9.972657 9.972656v159.570313c0 5.507812 4.464844 9.972656 9.972657 9.972656zm0 0"/><path d="m159.757812 488.679688h-59.835937c-5.507813 0-9.972656 4.464843-9.972656 9.972656 0 5.507812 4.464843 9.972656 9.972656 9.972656h59.835937c16.523438 0 29.921876-13.398438 29.921876-29.921875v-39.890625c0-16.523438-13.398438-29.917969-29.921876-29.917969h-39.890624c-5.507813 0-9.972657-4.464843-9.972657-9.972656v-39.894531c0-5.507813 4.464844-9.972656 9.972657-9.972656h59.835937c5.507813 0 9.976563-4.464844 9.976563-9.972657 0-5.507812-4.46875-9.972656-9.976563-9.972656h-59.835937c-16.523438 0-29.917969 13.398437-29.917969 29.917969v39.894531c0 16.523437 13.394531 29.917969 29.917969 29.917969h39.890624c5.507813 0 9.972657 4.464844 9.972657 9.972656v39.890625c0 5.507813-4.464844 9.976563-9.972657 9.976563zm0 0"/></svg>