<svg height="598pt" viewBox="-40 0 598 598.381" width="598pt" xmlns="http://www.w3.org/2000/svg"><path d="m518.699219 89.757812c.019531-2.636718-.996094-5.167968-2.832031-7.050781l-79.785157-79.785156c-1.886719-1.839844-4.417969-2.8632812-7.050781-2.84375v-.078125h-378.976562c-27.527344.0351562-49.832032 22.335938-49.863282 49.863281v498.652344c.03125 27.523437 22.335938 49.832031 49.863282 49.867187h418.867187c27.527344-.035156 49.832031-22.34375 49.867187-49.867187zm-79.695313-55.710937 45.734375 45.738281h-45.734375zm-388.949218-14.101563h369.003906v69.8125c0 5.507813 4.464844 9.972657 9.972656 9.972657h69.808594v199.460937h-478.703125v-249.328125c0-16.519531 13.394531-29.917969 29.917969-29.917969zm448.785156 498.652344h-478.703125v-199.460937h478.703125zm-29.917969 59.835938h-418.867187c-16.523438 0-29.917969-13.394532-29.917969-29.917969v-9.972656h478.703125v9.972656c0 16.523437-13.394532 29.917969-29.917969 29.917969zm0 0"/><path d="m219.597656 488.679688c-5.507812 0-9.972656 4.464843-9.972656 9.972656 0 5.507812 4.464844 9.972656 9.972656 9.972656h79.785156c5.503907 0 9.972657-4.464844 9.972657-9.972656 0-5.507813-4.46875-9.972656-9.972657-9.972656h-29.921874v-139.625h29.921874c5.503907 0 9.972657-4.464844 9.972657-9.972657 0-5.507812-4.46875-9.972656-9.972657-9.972656h-79.785156c-5.507812 0-9.972656 4.464844-9.972656 9.972656 0 5.507813 4.464844 9.972657 9.972656 9.972657h29.917969v139.625zm0 0"/><path d="m99.921875 349.054688h29.917969v149.597656c0 5.507812 4.464844 9.972656 9.972656 9.972656s9.972656-4.464844 9.972656-9.972656v-149.597656h29.917969c5.507813 0 9.976563-4.464844 9.976563-9.972657 0-5.507812-4.46875-9.972656-9.976563-9.972656h-79.78125c-5.507813 0-9.972656 4.464844-9.972656 9.972656 0 5.507813 4.464843 9.972657 9.972656 9.972657zm0 0"/><path d="m339.273438 508.625c5.507812 0 9.972656-4.464844 9.972656-9.972656v-69.8125h69.8125c5.507812 0 9.972656-4.464844 9.972656-9.972656 0-5.507813-4.464844-9.972657-9.972656-9.972657h-69.8125v-59.839843h69.8125c5.507812 0 9.972656-4.464844 9.972656-9.972657 0-5.507812-4.464844-9.972656-9.972656-9.972656h-79.785156c-5.507813 0-9.972657 4.464844-9.972657 9.972656v159.570313c0 5.507812 4.464844 9.972656 9.972657 9.972656zm0 0"/></svg>