<svg height="598pt" viewBox="-40 0 598 598.64988" width="598pt" xmlns="http://www.w3.org/2000/svg"><path d="m519.066406 89.796875c.03125-2.636719-.988281-5.171875-2.835937-7.054687l-79.820313-79.820313c-1.878906-1.84375-4.417968-2.8632812-7.054687-2.828125v-.09375h-379.144531c-27.539063.0351562-49.851563 22.351562-49.886719 49.886719v498.875c.035156 27.542969 22.347656 49.859375 49.886719 49.886719h419.054687c27.542969-.027344 49.855469-22.34375 49.890625-49.886719zm-79.730468-55.734375 45.753906 45.757812h-45.753906zm-389.125-14.109375h369.167968v69.84375c0 5.511719 4.46875 9.976563 9.976563 9.976563h69.84375v199.550781h-478.917969v-249.4375c0-16.53125 13.402344-29.933594 29.929688-29.933594zm448.988281 498.875h-478.917969v-199.546875h478.917969zm-29.933594 59.867187h-419.054687c-16.527344 0-29.929688-13.398437-29.929688-29.933593v-9.976563h478.917969v9.976563c0 16.535156-13.402344 29.933593-29.933594 29.933593zm0 0"/><path d="m97.816406 508.59375c4.5 1.019531 9.117188-1.144531 11.214844-5.257812l30.980469-61.96875 30.976562 61.96875c1.691407 3.382812 5.152344 5.519531 8.929688 5.515624.773437 0 1.535156-.085937 2.285156-.257812 4.511719-1.0625 7.699219-5.085938 7.695313-9.71875v-159.640625c0-5.507813-4.46875-9.976563-9.980469-9.976563-5.507813 0-9.976563 4.46875-9.976563 9.976563v117.378906l-20.953125-42.015625c-1.875-3.148437-5.265625-5.070312-8.929687-5.070312-3.660156 0-7.054688 1.921875-8.929688 5.070312l-21.050781 42.015625v-117.378906c0-5.507813-4.46875-9.976563-9.976563-9.976563-5.511718 0-9.980468 4.46875-9.980468 9.976563v159.640625c-.003906 4.632812 3.183594 8.65625 7.695312 9.71875zm0 0"/><path d="m219.828125 508.851562c5.511719 0 9.980469-4.464843 9.980469-9.976562v-69.84375h59.863281v69.84375c0 5.511719 4.46875 9.976562 9.976563 9.976562 5.511718 0 9.980468-4.464843 9.980468-9.976562v-139.683594c0-16.53125-13.402344-29.933594-29.933594-29.933594h-39.910156c-16.53125 0-29.933594 13.402344-29.933594 29.933594v139.683594c0 5.511719 4.46875 9.976562 9.976563 9.976562zm9.980469-149.660156c0-5.511718 4.464844-9.980468 9.976562-9.980468h39.910156c5.507813 0 9.976563 4.46875 9.976563 9.980468v49.886719h-59.863281zm0 0"/><path d="m369.789062 501.292969c1.117188 4.4375 5.105469 7.550781 9.679688 7.550781s8.566406-3.113281 9.679688-7.550781l39.910156-159.640625c1.191406-5.292969-2.058594-10.558594-7.320313-11.875-5.257812-1.308594-10.601562 1.820312-12.039062 7.046875l-30.230469 120.914062-30.230469-120.914062c-1.433593-5.226563-6.78125-8.355469-12.035156-7.046875-5.261719 1.316406-8.511719 6.582031-7.324219 11.875zm0 0"/></svg>