<svg height="599pt" viewBox="-40 0 599 599.20321" width="599pt" xmlns="http://www.w3.org/2000/svg"><path d="m45.574219 508.324219c4.933593 2.464843 10.9375.460937 13.398437-4.476563l31.007813-62.078125 31.011719 62.027344c2.464843 4.9375 8.46875 6.941406 13.402343 4.472656 4.9375-2.460937 6.941407-8.464843 4.472657-13.398437l-37.71875-75.429688 37.773437-75.429687c2.460937-4.9375.457031-10.9375-4.476563-13.402344-4.9375-2.464844-10.9375-.460937-13.402343 4.472656l-31.0625 62.027344-30.953125-62.027344c-2.46875-4.933593-8.464844-6.9375-13.40625-4.472656-4.933594 2.464844-6.9375 8.464844-4.46875 13.402344l37.667968 75.429687-37.722656 75.429688c-1.199218 2.371094-1.398437 5.128906-.5625 7.652344.839844 2.527343 2.652344 4.613281 5.039063 5.800781zm0 0"/><path d="m385.121094 508.324219c4.9375 2.464843 10.9375.460937 13.402344-4.476563l31.007812-62.078125 30.960938 62.027344c2.464843 4.9375 8.464843 6.941406 13.402343 4.472656 4.9375-2.460937 6.941407-8.464843 4.472657-13.398437l-37.667969-75.429688 37.769531-75.429687c2.464844-4.9375.460938-10.9375-4.476562-13.402344-4.933594-2.464844-10.9375-.460937-13.398438 4.472656l-31.0625 62.027344-30.957031-62.027344c-2.464844-4.933593-8.464844-6.9375-13.402344-4.472656s-6.941406 8.464844-4.472656 13.402344l37.667969 75.429687-37.722657 75.429688c-1.199219 2.371094-1.398437 5.128906-.558593 7.652344.835937 2.527343 2.652343 4.613281 5.035156 5.800781zm0 0"/><path d="m159.890625 509.324219h79.890625c5.523438 0 9.988281-4.472657 9.988281-9.988281 0-5.519532-4.464843-9.988282-9.988281-9.988282h-69.90625v-149.800781c0-5.519531-4.464844-9.984375-9.984375-9.984375-5.515625 0-9.988281 4.464844-9.988281 9.984375v159.789063c0 5.515624 4.472656 9.988281 9.988281 9.988281zm0 0"/><path d="m339.648438 489.347656h-59.917969c-5.515625 0-9.988281 4.46875-9.988281 9.988282 0 5.515624 4.472656 9.988281 9.988281 9.988281h59.917969c16.550781 0 29.960937-13.417969 29.960937-29.960938v-39.949219c0-16.546874-13.410156-29.957031-29.960937-29.957031h-39.945313c-5.515625 0-9.988281-4.472656-9.988281-9.988281v-39.945312c0-5.523438 4.472656-9.988282 9.988281-9.988282h59.921875c5.519531 0 9.984375-4.472656 9.984375-9.988281 0-5.519531-4.464844-9.984375-9.984375-9.984375h-59.921875c-16.546875 0-29.960937 13.410156-29.960937 29.960938v39.945312c0 16.546875 13.414062 29.960938 29.960937 29.960938h39.945313c5.523437 0 9.988281 4.464843 9.988281 9.984374v39.949219c0 5.515625-4.464844 9.984375-9.988281 9.984375zm0 0"/><path d="m519.324219 89.878906c.03125-2.636718-.992188-5.183594-2.839844-7.058594l-79.894531-79.894531c-1.878906-1.847656-4.421875-2.8671872-7.058594-2.8281248v-.0976562h-379.496094c-27.5625.0273438-49.898437 22.367188-49.933594 49.933594v499.335937c.035157 27.5625 22.371094 49.898438 49.933594 49.933594h419.441406c27.566407-.035156 49.90625-22.371094 49.933594-49.933594zm-79.808594-55.789062 45.804687 45.804687h-45.804687zm-389.480469-14.117188h369.507813v69.90625c0 5.515625 4.472656 9.988282 9.988281 9.988282h69.90625v199.734374h-479.363281v-249.667968c0-16.550782 13.414062-29.960938 29.960937-29.960938zm449.402344 499.335938h-479.363281v-199.734375h479.363281zm-29.960938 59.921875h-419.441406c-16.546875 0-29.960937-13.414063-29.960937-29.960938v-9.988281h479.363281v9.988281c0 16.546875-13.410156 29.960938-29.960938 29.960938zm0 0"/></svg>