<svg height="598pt" viewBox="-40 0 598 598.3746" width="598pt" xmlns="http://www.w3.org/2000/svg"><path d="m518.691406 89.757812c.027344-2.636718-.988281-5.171874-2.835937-7.054687l-79.78125-79.78125c-1.878907-1.84375-4.417969-2.8632812-7.050781-2.828125v-.09375h-378.972657c-27.527343.0351562-49.828125 22.339844-49.863281 49.863281v498.648438c.035156 27.527343 22.335938 49.828125 49.863281 49.863281h418.863281c27.527344-.035156 49.832032-22.335938 49.863282-49.863281zm-79.695312-55.710937 45.734375 45.738281h-45.734375zm-388.945313-14.101563h369v69.8125c0 5.507813 4.464844 9.972657 9.972657 9.972657h69.808593v199.457031h-478.699219v-249.324219c0-16.519531 13.398438-29.917969 29.917969-29.917969zm448.78125 498.644532h-478.699219v-199.457032h478.699219zm-29.917969 59.839844h-418.863281c-16.519531 0-29.917969-13.398438-29.917969-29.917969v-9.972657h478.699219v9.972657c0 16.519531-13.394531 29.917969-29.917969 29.917969zm0 0"/><path d="m339.265625 508.617188c5.507813 0 9.972656-4.464844 9.972656-9.972657v-69.808593h49.867188c16.519531 0 29.917969-13.398438 29.917969-29.917969v-39.894531c0-16.519532-13.398438-29.917969-29.917969-29.917969h-59.839844c-5.507813 0-9.972656 4.464843-9.972656 9.972656v159.566406c0 5.507813 4.464843 9.972657 9.972656 9.972657zm9.972656-159.566407h49.867188c5.503906 0 9.972656 4.464844 9.972656 9.972657v39.894531c0 5.507812-4.46875 9.972656-9.972656 9.972656h-49.867188zm0 0"/><path d="m219.589844 488.671875c-5.507813 0-9.972656 4.464844-9.972656 9.972656 0 5.507813 4.464843 9.972657 9.972656 9.972657h79.785156c5.507812 0 9.972656-4.464844 9.972656-9.972657 0-5.507812-4.464844-9.972656-9.972656-9.972656h-29.917969v-139.621094h29.917969c5.507812 0 9.972656-4.464843 9.972656-9.972656s-4.464844-9.972656-9.972656-9.972656h-79.785156c-5.507813 0-9.972656 4.464843-9.972656 9.972656s4.464843 9.972656 9.972656 9.972656h29.921875v139.621094zm0 0"/><path d="m99.917969 349.050781h63.644531l-72.570312 145.140625c-1.546876 3.089844-1.378907 6.761719.4375 9.703125 1.820312 2.9375 5.03125 4.730469 8.488281 4.722657h79.78125c5.507812 0 9.972656-4.464844 9.972656-9.972657 0-5.507812-4.464844-9.972656-9.972656-9.972656h-63.644531l72.621093-145.132813c1.546875-3.101562 1.375-6.78125-.453125-9.722656-1.832031-2.949218-5.054687-4.730468-8.523437-4.710937h-79.78125c-5.507813 0-9.972657 4.464843-9.972657 9.972656s4.464844 9.972656 9.972657 9.972656zm0 0"/></svg>